# xmcd
#
# Track frame offsets:
#	150
#	13058
#	29635
#	44112
#	57177
#	73778
#	89250
#	105306
#	118776
#	137588
#	153415
#	167020
#	187543
#
# Disc length: 2744 seconds
#
# Revision: 0
# Processed by: cddbd v1.5.1PL0 Copyright (c) Steve Scherf et al.
# Submitted via: dBpowerAMP V4.0
#
DISCID=aa0ab60d
DTITLE=Johnny Reid - JCD281
DYEAR=1900
DGENRE=Country
TTITLE0=Runnin Wild
TTITLE1=My Guarantee
TTITLE2=She Don't Wanna Hear
TTITLE3=Blindfold and a Cigarette
TTITLE4=Hey There Mister
TTITLE5=Jeannie
TTITLE6=Missing In Action
TTITLE7=Just Bein' Us
TTITLE8=Please Forgive Me
TTITLE9=Given Up On Me
TTITLE10=Mr. Saturday Night
TTITLE11=The Blues is Winning
TTITLE12=Bonus Track
EXTD=
EXTT0=
EXTT1=
EXTT2=
EXTT3=
EXTT4=
EXTT5=
EXTT6=
EXTT7=
EXTT8=
EXTT9=
EXTT10=
EXTT11=
EXTT12=
PLAYORDER=
